<svg xmlns="http://www.w3.org/2000/svg" viewBox="20 35 1250 671" font-family="Helvetica, Arial, sans-serif">
  <rect x="20" y="35" width="1250" height="671" fill="#ffffff"/>

  <!-- Relationship connector lines (center-to-center, clipped to nearest box edges) -->
  <g fill="none" stroke="#000000" stroke-width="1.3">
    <line x1="352.6" y1="249.0" x2="520.0" y2="322.8"/>   <!-- CaresFor care-pat -->
    <line x1="680.0" y1="340.5" x2="840.0" y2="305.5"/>   <!-- Takes pat-med -->
    <line x1="1000.0" y1="288.0" x2="1090.0" y2="288.0"/> <!-- Records med-medlog -->
    <line x1="680.0" y1="376.8" x2="860.0" y2="419.2"/>   <!-- Follows pat-rout -->
    <line x1="1020.0" y1="445.0" x2="1090.0" y2="451.0"/> <!-- Records rout-routlog -->
    <line x1="656.2" y1="396.0" x2="883.8" y2="550.0"/>   <!-- Triggers pat-alert -->
    <line x1="616.9" y1="396.0" x2="703.1" y2="590.0"/>   <!-- Has pat-rem -->
    <line x1="588.2" y1="396.0" x2="521.8" y2="610.0"/>   <!-- SummarizedIn pat-rep -->
    <line x1="580.3" y1="396.0" x2="479.7" y2="590.0"/>   <!-- Sends pat-chat -->
    <line x1="538.5" y1="396.0" x2="321.5" y2="530.0"/>   <!-- Owns pat-mem -->
    <line x1="520.0" y1="353.0" x2="200.0" y2="333.0"/>   <!-- Knows pat-face -->
    <line x1="520.0" y1="378.0" x2="200.0" y2="458.0"/>   <!-- Has pat-reclog -->
    <line x1="120.0" y1="440.0" x2="120.0" y2="366.0"/>   <!-- Matches reclog-face -->
    <line x1="520.0" y1="375.5" x2="400.0" y2="401.6"/>   <!-- About pat-note -->
    <line x1="287.2" y1="249.0" x2="316.5" y2="380.0"/>   <!-- Writes care-note -->
    <line x1="680.0" y1="148.1" x2="860.0" y2="109.9"/>   <!-- Handles user-contact -->

    <!-- Specialization (generalization) lines -->
    <line x1="600.0" y1="210.0" x2="600.0" y2="238.0"/>   <!-- User -> triangle apex -->
    <line x1="600.0" y1="264.0" x2="600.0" y2="320.0"/>   <!-- triangle -> Patient -->
    <line x1="590.0" y1="258.0" x2="360.0" y2="225.5"/>   <!-- triangle -> Caregiver -->
  </g>

  <!-- Specialization triangle (hollow, pointing north to superclass User) -->
  <polygon points="600,238 585,264 615,264" fill="#ffffff" stroke="#000000" stroke-width="1.3"/>
  <text x="620" y="253" font-size="9" font-style="italic" fill="#000000">{Optional, Or}</text>

  <!-- ================= ENTITY BOXES ================= -->
  <!-- User -->
  <rect x="520" y="120" width="160" height="90" fill="#ffffff" stroke="#000000" stroke-width="1.3"/>
  <text x="526" y="134" font-size="11" font-weight="bold" fill="#000000">User</text>
  <line x1="520" y1="140" x2="680" y2="140" stroke="#000000" stroke-width="1.3"/>
  <text x="526" y="154" font-size="11" fill="#000000">userId {PK}</text>
  <text x="526" y="168" font-size="11" fill="#000000">name</text>
  <text x="526" y="182" font-size="11" fill="#000000">email</text>
  <text x="526" y="196" font-size="11" fill="#000000">role</text>

  <!-- Patient -->
  <rect x="520" y="320" width="160" height="76" fill="#ffffff" stroke="#000000" stroke-width="1.3"/>
  <text x="526" y="334" font-size="11" font-weight="bold" fill="#000000">Patient</text>
  <line x1="520" y1="340" x2="680" y2="340" stroke="#000000" stroke-width="1.3"/>
  <text x="526" y="354" font-size="11" fill="#000000">patientId {PK}</text>
  <text x="526" y="368" font-size="11" fill="#000000">diagnosis</text>
  <text x="526" y="382" font-size="11" fill="#000000">dateOfBirth</text>

  <!-- Caregiver -->
  <rect x="200" y="185" width="160" height="64" fill="#ffffff" stroke="#000000" stroke-width="1.3"/>
  <text x="206" y="199" font-size="11" font-weight="bold" fill="#000000">Caregiver</text>
  <line x1="200" y1="205" x2="360" y2="205" stroke="#000000" stroke-width="1.3"/>
  <text x="206" y="219" font-size="11" fill="#000000">caregiverId {PK}</text>
  <text x="206" y="233" font-size="11" fill="#000000">specialization</text>

  <!-- Contact -->
  <rect x="860" y="55" width="160" height="76" fill="#ffffff" stroke="#000000" stroke-width="1.3"/>
  <text x="866" y="69" font-size="11" font-weight="bold" fill="#000000">Contact</text>
  <line x1="860" y1="75" x2="1020" y2="75" stroke="#000000" stroke-width="1.3"/>
  <text x="866" y="89" font-size="11" fill="#000000">contactId {PK}</text>
  <text x="866" y="103" font-size="11" fill="#000000">subject</text>
  <text x="866" y="117" font-size="11" fill="#000000">status</text>

  <!-- Medication -->
  <rect x="840" y="250" width="160" height="76" fill="#ffffff" stroke="#000000" stroke-width="1.3"/>
  <text x="846" y="264" font-size="11" font-weight="bold" fill="#000000">Medication</text>
  <line x1="840" y1="270" x2="1000" y2="270" stroke="#000000" stroke-width="1.3"/>
  <text x="846" y="284" font-size="11" fill="#000000">medicationId {PK}</text>
  <text x="846" y="298" font-size="11" fill="#000000">name</text>
  <text x="846" y="312" font-size="11" fill="#000000">dosage</text>

  <!-- MedicationLog -->
  <rect x="1090" y="250" width="160" height="76" fill="#ffffff" stroke="#000000" stroke-width="1.3"/>
  <text x="1096" y="264" font-size="11" font-weight="bold" fill="#000000">MedicationLog</text>
  <line x1="1090" y1="270" x2="1250" y2="270" stroke="#000000" stroke-width="1.3"/>
  <text x="1096" y="284" font-size="11" fill="#000000">logId {PK}</text>
  <text x="1096" y="298" font-size="11" fill="#000000">status</text>
  <text x="1096" y="312" font-size="11" fill="#000000">scheduledTime</text>

  <!-- Routine -->
  <rect x="860" y="400" width="160" height="76" fill="#ffffff" stroke="#000000" stroke-width="1.3"/>
  <text x="866" y="414" font-size="11" font-weight="bold" fill="#000000">Routine</text>
  <line x1="860" y1="420" x2="1020" y2="420" stroke="#000000" stroke-width="1.3"/>
  <text x="866" y="434" font-size="11" fill="#000000">routineId {PK}</text>
  <text x="866" y="448" font-size="11" fill="#000000">activityName</text>
  <text x="866" y="462" font-size="11" fill="#000000">startTime</text>

  <!-- RoutineLog -->
  <rect x="1090" y="420" width="160" height="76" fill="#ffffff" stroke="#000000" stroke-width="1.3"/>
  <text x="1096" y="434" font-size="11" font-weight="bold" fill="#000000">RoutineLog</text>
  <line x1="1090" y1="440" x2="1250" y2="440" stroke="#000000" stroke-width="1.3"/>
  <text x="1096" y="454" font-size="11" fill="#000000">logId {PK}</text>
  <text x="1096" y="468" font-size="11" fill="#000000">status</text>
  <text x="1096" y="482" font-size="11" fill="#000000">scheduledDate</text>

  <!-- Alert -->
  <rect x="860" y="550" width="160" height="76" fill="#ffffff" stroke="#000000" stroke-width="1.3"/>
  <text x="866" y="564" font-size="11" font-weight="bold" fill="#000000">Alert</text>
  <line x1="860" y1="570" x2="1020" y2="570" stroke="#000000" stroke-width="1.3"/>
  <text x="866" y="584" font-size="11" fill="#000000">alertId {PK}</text>
  <text x="866" y="598" font-size="11" fill="#000000">type</text>
  <text x="866" y="612" font-size="11" fill="#000000">severity</text>

  <!-- Reminder -->
  <rect x="640" y="590" width="160" height="76" fill="#ffffff" stroke="#000000" stroke-width="1.3"/>
  <text x="646" y="604" font-size="11" font-weight="bold" fill="#000000">Reminder</text>
  <line x1="640" y1="610" x2="800" y2="610" stroke="#000000" stroke-width="1.3"/>
  <text x="646" y="624" font-size="11" fill="#000000">reminderId {PK}</text>
  <text x="646" y="638" font-size="11" fill="#000000">type</text>
  <text x="646" y="652" font-size="11" fill="#000000">scheduledTime</text>

  <!-- Report -->
  <rect x="430" y="610" width="160" height="76" fill="#ffffff" stroke="#000000" stroke-width="1.3"/>
  <text x="436" y="624" font-size="11" font-weight="bold" fill="#000000">Report</text>
  <line x1="430" y1="630" x2="590" y2="630" stroke="#000000" stroke-width="1.3"/>
  <text x="436" y="644" font-size="11" fill="#000000">reportId {PK}</text>
  <text x="436" y="658" font-size="11" fill="#000000">type</text>
  <text x="436" y="672" font-size="11" fill="#000000">period</text>

  <!-- ChatHistory -->
  <rect x="380" y="590" width="160" height="76" fill="#ffffff" stroke="#000000" stroke-width="1.3"/>
  <text x="386" y="604" font-size="11" font-weight="bold" fill="#000000">ChatHistory</text>
  <line x1="380" y1="610" x2="540" y2="610" stroke="#000000" stroke-width="1.3"/>
  <text x="386" y="624" font-size="11" fill="#000000">chatId {PK}</text>
  <text x="386" y="638" font-size="11" fill="#000000">query</text>
  <text x="386" y="652" font-size="11" fill="#000000">response</text>

  <!-- Memory -->
  <rect x="180" y="530" width="160" height="76" fill="#ffffff" stroke="#000000" stroke-width="1.3"/>
  <text x="186" y="544" font-size="11" font-weight="bold" fill="#000000">Memory</text>
  <line x1="180" y1="550" x2="340" y2="550" stroke="#000000" stroke-width="1.3"/>
  <text x="186" y="564" font-size="11" fill="#000000">memoryId {PK}</text>
  <text x="186" y="578" font-size="11" fill="#000000">title</text>
  <text x="186" y="592" font-size="11" fill="#000000">date</text>

  <!-- KnownFace -->
  <rect x="40" y="290" width="160" height="76" fill="#ffffff" stroke="#000000" stroke-width="1.3"/>
  <text x="46" y="304" font-size="11" font-weight="bold" fill="#000000">KnownFace</text>
  <line x1="40" y1="310" x2="200" y2="310" stroke="#000000" stroke-width="1.3"/>
  <text x="46" y="324" font-size="11" fill="#000000">faceId {PK}</text>
  <text x="46" y="338" font-size="11" fill="#000000">name</text>
  <text x="46" y="352" font-size="11" fill="#000000">relationship</text>

  <!-- RecognitionLog -->
  <rect x="40" y="440" width="160" height="76" fill="#ffffff" stroke="#000000" stroke-width="1.3"/>
  <text x="46" y="454" font-size="11" font-weight="bold" fill="#000000">RecognitionLog</text>
  <line x1="40" y1="460" x2="200" y2="460" stroke="#000000" stroke-width="1.3"/>
  <text x="46" y="474" font-size="11" fill="#000000">recId {PK}</text>
  <text x="46" y="488" font-size="11" fill="#000000">result</text>
  <text x="46" y="502" font-size="11" fill="#000000">confidence</text>

  <!-- Note -->
  <rect x="250" y="380" width="150" height="76" fill="#ffffff" stroke="#000000" stroke-width="1.3"/>
  <text x="256" y="394" font-size="11" font-weight="bold" fill="#000000">Note</text>
  <line x1="250" y1="400" x2="400" y2="400" stroke="#000000" stroke-width="1.3"/>
  <text x="256" y="414" font-size="11" fill="#000000">noteId {PK}</text>
  <text x="256" y="428" font-size="11" fill="#000000">content</text>
  <text x="256" y="442" font-size="11" fill="#000000">category</text>

  <!-- ================= RELATIONSHIP LABELS (names + multiplicities) ================= -->
  <g font-size="10" text-anchor="middle" fill="#000000">
    <rect x="410.3" y="276.9" width="52" height="13" fill="#ffffff"/><text x="436.3" y="285.9">CaresFor</text>
    <rect x="743.0" y="314.0" width="34" height="13" fill="#ffffff"/><text x="760.0" y="323.0">Takes</text>
    <rect x="1022.0" y="279.0" width="46" height="13" fill="#ffffff"/><text x="1045.0" y="288.0">Records</text>
    <rect x="747.0" y="389.0" width="46" height="13" fill="#ffffff"/><text x="770.0" y="398.0">Follows</text>
    <rect x="1032.0" y="439.0" width="46" height="13" fill="#ffffff"/><text x="1055.0" y="448.0">Records</text>
    <rect x="744.0" y="464.0" width="52" height="13" fill="#ffffff"/><text x="770.0" y="473.0">Triggers</text>
    <rect x="649.0" y="484.0" width="22" height="13" fill="#ffffff"/><text x="660.0" y="493.0">Has</text>
    <rect x="517.0" y="494.0" width="76" height="13" fill="#ffffff"/><text x="555.0" y="503.0">SummarizedIn</text>
    <rect x="513.0" y="484.0" width="34" height="13" fill="#ffffff"/><text x="530.0" y="493.0">Sends</text>
    <rect x="416.0" y="454.0" width="28" height="13" fill="#ffffff"/><text x="430.0" y="463.0">Owns</text>
    <rect x="343.0" y="334.0" width="34" height="13" fill="#ffffff"/><text x="360.0" y="343.0">Knows</text>
    <rect x="349.0" y="409.0" width="22" height="13" fill="#ffffff"/><text x="360.0" y="418.0">Has</text>
    <rect x="97.0" y="394.0" width="46" height="13" fill="#ffffff"/><text x="120.0" y="403.0">Matches</text>
    <rect x="443.0" y="379.5" width="34" height="13" fill="#ffffff"/><text x="460.0" y="388.5">About</text>
    <rect x="281.8" y="305.5" width="40" height="13" fill="#ffffff"/><text x="301.8" y="314.5">Writes</text>
    <rect x="747.0" y="120.0" width="46" height="13" fill="#ffffff"/><text x="770.0" y="129.0">Handles</text>
  </g>

  <g font-size="9" text-anchor="middle" fill="#000000">
    <!-- CaresFor -->
    <rect x="355.4" y="245.6" width="20" height="12" fill="#ffffff"/><text x="365.4" y="254.6">0..*</text>
    <rect x="497.2" y="308.2" width="20" height="12" fill="#ffffff"/><text x="507.2" y="317.2">0..*</text>
    <!-- Takes -->
    <rect x="683.7" y="328.5" width="20" height="12" fill="#ffffff"/><text x="693.7" y="337.5">1..1</text>
    <rect x="816.3" y="299.5" width="20" height="12" fill="#ffffff"/><text x="826.3" y="308.5">0..*</text>
    <!-- Records med-medlog -->
    <rect x="1004.0" y="279.0" width="20" height="12" fill="#ffffff"/><text x="1014.0" y="288.0">1..1</text>
    <rect x="1066.0" y="279.0" width="20" height="12" fill="#ffffff"/><text x="1076.0" y="288.0">0..*</text>
    <!-- Follows -->
    <rect x="683.6" y="371.0" width="20" height="12" fill="#ffffff"/><text x="693.6" y="380.0">1..1</text>
    <rect x="836.4" y="407.0" width="20" height="12" fill="#ffffff"/><text x="846.4" y="416.0">0..*</text>
    <!-- Records rout-routlog -->
    <rect x="1023.9" y="437.2" width="20" height="12" fill="#ffffff"/><text x="1033.9" y="446.2">1..1</text>
    <rect x="1066.1" y="440.8" width="20" height="12" fill="#ffffff"/><text x="1076.1" y="449.8">0..*</text>
    <!-- Triggers -->
    <rect x="657.8" y="394.8" width="20" height="12" fill="#ffffff"/><text x="667.8" y="403.8">1..1</text>
    <rect x="862.2" y="533.2" width="20" height="12" fill="#ffffff"/><text x="872.2" y="542.2">0..*</text>
    <!-- Has pat-rem -->
    <rect x="612.6" y="399.8" width="20" height="12" fill="#ffffff"/><text x="622.6" y="408.8">1..1</text>
    <rect x="687.4" y="568.2" width="20" height="12" fill="#ffffff"/><text x="697.4" y="577.2">0..*</text>
    <!-- SummarizedIn -->
    <rect x="574.1" y="400.4" width="20" height="12" fill="#ffffff"/><text x="584.1" y="409.4">0..1</text>
    <rect x="515.9" y="587.6" width="20" height="12" fill="#ffffff"/><text x="525.9" y="596.6">0..*</text>
    <!-- Sends -->
    <rect x="563.9" y="399.4" width="20" height="12" fill="#ffffff"/><text x="573.9" y="408.4">1..1</text>
    <rect x="476.1" y="568.6" width="20" height="12" fill="#ffffff"/><text x="486.1" y="577.6">0..*</text>
    <!-- Owns -->
    <rect x="516.6" y="394.4" width="20" height="12" fill="#ffffff"/><text x="526.6" y="403.4">1..1</text>
    <rect x="323.4" y="513.6" width="20" height="12" fill="#ffffff"/><text x="333.4" y="522.6">0..*</text>
    <!-- Knows -->
    <rect x="496.0" y="343.1" width="20" height="12" fill="#ffffff"/><text x="506.0" y="352.1">1..1</text>
    <rect x="204.0" y="324.9" width="20" height="12" fill="#ffffff"/><text x="214.0" y="333.9">0..*</text>
    <!-- Has pat-reclog -->
    <rect x="496.4" y="372.4" width="20" height="12" fill="#ffffff"/><text x="506.4" y="381.4">1..1</text>
    <rect x="203.6" y="445.6" width="20" height="12" fill="#ffffff"/><text x="213.6" y="454.6">0..*</text>
    <!-- Matches reclog-face -->
    <rect x="110.0" y="420.0" width="20" height="12" fill="#ffffff"/><text x="120.0" y="429.0">0..*</text>
    <rect x="110.0" y="374.0" width="20" height="12" fill="#ffffff"/><text x="120.0" y="383.0">0..1</text>
    <!-- About -->
    <rect x="496.3" y="369.5" width="20" height="12" fill="#ffffff"/><text x="506.3" y="378.5">1..1</text>
    <rect x="403.7" y="389.6" width="20" height="12" fill="#ffffff"/><text x="413.7" y="398.6">0..*</text>
    <!-- Writes -->
    <rect x="280.3" y="253.7" width="20" height="12" fill="#ffffff"/><text x="290.3" y="262.7">1..1</text>
    <rect x="303.4" y="357.3" width="20" height="12" fill="#ffffff"/><text x="313.4" y="366.3">0..*</text>
    <!-- Handles -->
    <rect x="683.7" y="136.2" width="20" height="12" fill="#ffffff"/><text x="693.7" y="145.2">0..1</text>
    <rect x="836.3" y="103.8" width="20" height="12" fill="#ffffff"/><text x="846.3" y="112.8">0..*</text>
  </g>
</svg>
