<svg xmlns="http://www.w3.org/2000/svg" viewBox="40 20 700 1290" font-family="Helvetica, Arial, sans-serif">
  <defs>
    <marker id="filled" markerWidth="12" markerHeight="10" refX="9" refY="4" orient="auto" markerUnits="userSpaceOnUse">
      <path d="M0,0 L9,4 L0,8 z" fill="black"/>
    </marker>
    <marker id="open" markerWidth="14" markerHeight="12" refX="8" refY="5" orient="auto" markerUnits="userSpaceOnUse">
      <path d="M9,1 L1,5 L9,9" fill="none" stroke="black" stroke-width="1.4"/>
    </marker>
  </defs>
  <rect x="40" y="20" width="700" height="1290" fill="white"/>
  <g stroke="black" stroke-width="1.4" fill="none">
    <line x1="80" y1="118" x2="80" y2="910" stroke-dasharray="6 5"/>
    <line x1="80" y1="1035" x2="80" y2="1290" stroke-dasharray="6 5"/>
    <line x1="640" y1="90" x2="640" y2="1290" stroke-dasharray="6 5"/>
    <rect x="560" y="40" width="160" height="50" fill="white"/>
    <circle cx="80" cy="54" r="14" fill="white"/>
    <line x1="80" y1="68" x2="80" y2="98"/>
    <line x1="60" y1="80" x2="100" y2="80"/>
    <line x1="80" y1="98" x2="66" y2="116"/>
    <line x1="80" y1="98" x2="94" y2="116"/>
    <circle cx="80" cy="952" r="14" fill="white"/>
    <line x1="80" y1="966" x2="80" y2="996"/>
    <line x1="60" y1="978" x2="100" y2="978"/>
    <line x1="80" y1="996" x2="66" y2="1014"/>
    <line x1="80" y1="996" x2="94" y2="1014"/>
    <rect x="50" y="288" width="628" height="84" fill="none"/>
    <path d="M50,288 L94,288 L94,298 L86,306 L50,306 Z" fill="white"/>
    <rect x="50" y="518" width="628" height="84" fill="none"/>
    <path d="M50,518 L94,518 L94,528 L86,536 L50,536 Z" fill="white"/>
    <rect x="50" y="630" width="628" height="142" fill="none"/>
    <path d="M50,630 L94,630 L94,640 L86,648 L50,648 Z" fill="white"/>
    <line x1="50" y1="728" x2="678" y2="728" stroke-dasharray="6 5"/>
    <rect x="636" y="175" width="10" height="25" fill="white"/>
    <rect x="636" y="235" width="10" height="25" fill="white"/>
    <rect x="636" y="322" width="10" height="25" fill="white"/>
    <rect x="636" y="405" width="10" height="25" fill="white"/>
    <rect x="636" y="465" width="10" height="25" fill="white"/>
    <rect x="636" y="552" width="10" height="25" fill="white"/>
    <rect x="636" y="805" width="10" height="25" fill="white"/>
    <rect x="636" y="865" width="10" height="25" fill="white"/>
    <rect x="636" y="1065" width="10" height="25" fill="white"/>
    <rect x="636" y="1120" width="10" height="25" fill="white"/>
    <rect x="636" y="1175" width="10" height="25" fill="white"/>
    <rect x="636" y="1230" width="10" height="25" fill="white"/>
    <rect x="636" y="664" width="10" height="84" fill="white"/>
    <line x1="80" y1="175" x2="636" y2="175" marker-end="url(#filled)"/>
    <line x1="636" y1="200" x2="80" y2="200" stroke-dasharray="6 4" marker-end="url(#open)"/>
    <line x1="80" y1="235" x2="636" y2="235" marker-end="url(#filled)"/>
    <line x1="636" y1="260" x2="80" y2="260" stroke-dasharray="6 4" marker-end="url(#open)"/>
    <line x1="80" y1="322" x2="636" y2="322" marker-end="url(#filled)"/>
    <line x1="636" y1="347" x2="80" y2="347" stroke-dasharray="6 4" marker-end="url(#open)"/>
    <line x1="80" y1="405" x2="636" y2="405" marker-end="url(#filled)"/>
    <line x1="636" y1="430" x2="80" y2="430" stroke-dasharray="6 4" marker-end="url(#open)"/>
    <line x1="80" y1="465" x2="636" y2="465" marker-end="url(#filled)"/>
    <line x1="636" y1="490" x2="80" y2="490" stroke-dasharray="6 4" marker-end="url(#open)"/>
    <line x1="80" y1="552" x2="636" y2="552" marker-end="url(#filled)"/>
    <line x1="636" y1="577" x2="80" y2="577" stroke-dasharray="6 4" marker-end="url(#open)"/>
    <line x1="80" y1="805" x2="636" y2="805" marker-end="url(#filled)"/>
    <line x1="636" y1="830" x2="80" y2="830" stroke-dasharray="6 4" marker-end="url(#open)"/>
    <line x1="80" y1="865" x2="636" y2="865" marker-end="url(#filled)"/>
    <line x1="636" y1="890" x2="80" y2="890" stroke-dasharray="6 4" marker-end="url(#open)"/>
    <line x1="80" y1="1065" x2="636" y2="1065" marker-end="url(#filled)"/>
    <line x1="636" y1="1090" x2="80" y2="1090" stroke-dasharray="6 4" marker-end="url(#open)"/>
    <line x1="80" y1="1120" x2="636" y2="1120" marker-end="url(#filled)"/>
    <line x1="636" y1="1145" x2="80" y2="1145" stroke-dasharray="6 4" marker-end="url(#open)"/>
    <line x1="80" y1="1175" x2="636" y2="1175" marker-end="url(#filled)"/>
    <line x1="636" y1="1200" x2="80" y2="1200" stroke-dasharray="6 4" marker-end="url(#open)"/>
    <line x1="80" y1="1230" x2="636" y2="1230" marker-end="url(#filled)"/>
    <line x1="636" y1="1255" x2="80" y2="1255" stroke-dasharray="6 4" marker-end="url(#open)"/>
    <line x1="80" y1="664" x2="636" y2="664" marker-end="url(#filled)"/>
    <line x1="636" y1="692" x2="80" y2="692" stroke-dasharray="6 4" marker-end="url(#open)"/>
    <line x1="636" y1="748" x2="80" y2="748" stroke-dasharray="6 4" marker-end="url(#open)"/>
  </g>
  <g fill="black" font-size="12">
    <text x="80" y="132" text-anchor="middle" font-weight="bold">Patient</text>
    <text x="80" y="1030" text-anchor="middle" font-weight="bold">Caregiver</text>
    <text x="640" y="70" text-anchor="middle" font-weight="bold">:MemoryCare System</text>
    <text x="72" y="301" text-anchor="middle" font-weight="bold" font-size="11">loop</text>
    <text x="72" y="531" text-anchor="middle" font-weight="bold" font-size="11">loop</text>
    <text x="72" y="643" text-anchor="middle" font-weight="bold" font-size="11">alt</text>
    <text x="100" y="302" font-style="italic">[for each due dose]</text>
    <text x="100" y="532" font-style="italic">[while chatting]</text>
    <text x="100" y="644" font-style="italic">[face recognized]</text>
    <text x="58"  y="742" font-style="italic">[unknown]</text>
    <text x="358" y="169" text-anchor="middle">login(email, password)</text>
    <text x="358" y="229" text-anchor="middle">viewTodaysMedications(patientId)</text>
    <text x="358" y="316" text-anchor="middle">markMedicationTaken(medId)</text>
    <text x="358" y="399" text-anchor="middle">viewRoutines(patientId)</text>
    <text x="358" y="459" text-anchor="middle">completeRoutine(routineId)</text>
    <text x="358" y="546" text-anchor="middle">sendMessage(patientId, message, lang)</text>
    <text x="358" y="799" text-anchor="middle">viewMemories(patientId)</text>
    <text x="358" y="859" text-anchor="middle">generateReport(patientId, type, period)</text>
    <text x="358" y="1059" text-anchor="middle">addMedication(patientId, details)</text>
    <text x="358" y="1114" text-anchor="middle">enrollKnownFace(patientId, name, descriptor)</text>
    <text x="358" y="1169" text-anchor="middle">viewAlerts(caregiverId)</text>
    <text x="358" y="1224" text-anchor="middle">resolveAlert(alertId)</text>
    <text x="358" y="658" text-anchor="middle">captureFace(patientId, image)</text>
    <text x="358" y="194" text-anchor="middle" font-style="italic">authToken</text>
    <text x="358" y="254" text-anchor="middle" font-style="italic">medicationList</text>
    <text x="358" y="341" text-anchor="middle" font-style="italic">confirmation</text>
    <text x="358" y="424" text-anchor="middle" font-style="italic">routineList</text>
    <text x="358" y="484" text-anchor="middle" font-style="italic">confirmation</text>
    <text x="358" y="571" text-anchor="middle" font-style="italic">reply</text>
    <text x="358" y="824" text-anchor="middle" font-style="italic">memoryList</text>
    <text x="358" y="884" text-anchor="middle" font-style="italic">reportFile</text>
    <text x="358" y="1084" text-anchor="middle" font-style="italic">confirmation</text>
    <text x="358" y="1139" text-anchor="middle" font-style="italic">confirmation</text>
    <text x="358" y="1194" text-anchor="middle" font-style="italic">alertList</text>
    <text x="358" y="1249" text-anchor="middle" font-style="italic">confirmation</text>
    <text x="358" y="686" text-anchor="middle" font-style="italic">personInfo(name, relationship, confidence)</text>
    <text x="358" y="742" text-anchor="middle" font-style="italic">unknownPerson</text>
  </g>
</svg>
